<svg width="22" height="25" viewBox="0 0 22 25" fill="none" xmlns="http://www.w3.org/2000/svg">
<path d="M10.6138 0.889893C10.2997 0.889893 10.1075 0.758643 9.88721 0.603955C9.57783 0.393018 9.20752 0.139893 8.36377 0.139893C6.93408 0.139893 5.92627 2.18833 5.27002 4.33052C3.05283 4.73833 1.61377 5.39927 1.61377 6.13989C1.61377 6.81021 2.78564 7.4102 4.64189 7.8227C4.62314 8.0102 4.61377 8.19771 4.61377 8.38989C4.61377 9.18677 4.76846 9.94614 5.04971 10.6399H2.24189C1.89502 10.6399 1.61377 10.9211 1.61377 11.268C1.61377 11.3477 1.62783 11.4274 1.66064 11.5024L3.47939 16.0446C1.43564 17.568 0.11377 20.0055 0.11377 22.7477C0.11377 23.5165 0.737207 24.1399 1.50596 24.1399H19.7216C20.4903 24.1399 21.1138 23.5165 21.1138 22.7477C21.1138 20.0055 19.7919 17.5727 17.7528 16.0446L19.5669 11.5024C19.595 11.4274 19.6138 11.3477 19.6138 11.268C19.6138 10.9211 19.3325 10.6399 18.9856 10.6399H16.1778C16.4591 9.94614 16.6138 9.18677 16.6138 8.38989C16.6138 8.19771 16.6044 8.0102 16.5856 7.8227C18.4419 7.4102 19.6138 6.81021 19.6138 6.13989C19.6138 5.39927 18.1747 4.73833 15.9575 4.33052C15.3013 2.18833 14.2935 0.139893 12.8638 0.139893C12.02 0.139893 11.6497 0.393018 11.3403 0.603955C11.1153 0.758643 10.9278 0.889893 10.6138 0.889893ZM13.2388 10.6399H12.6575C11.8841 10.6399 11.1997 10.143 10.956 9.41177C10.8481 9.08364 10.3841 9.08364 10.2763 9.41177C10.0325 10.143 9.34346 10.6399 8.57471 10.6399H7.98877C6.95283 10.6399 6.11377 9.80083 6.11377 8.76489V8.08989C7.43564 8.28208 8.97314 8.38989 10.6138 8.38989C12.2544 8.38989 13.7919 8.28208 15.1138 8.08989V8.76489C15.1138 9.80083 14.2747 10.6399 13.2388 10.6399ZM9.11377 15.1399L9.86377 16.6399L8.36377 22.6399L6.11377 13.6399L9.11377 15.1399ZM15.1138 13.6399L12.8638 22.6399L11.3638 16.6399L12.1138 15.1399L15.1138 13.6399Z" fill="white"/>
</svg>
