<svg width="1051" height="779" viewBox="0 0 1051 779" fill="none" xmlns="http://www.w3.org/2000/svg">
<g opacity="0.26" clip-path="url(#clip0_92_13)">
<path d="M687.384 296.232C580.616 296.232 516.191 340.448 453.778 403.307L435.533 421.699C371.045 486.574 334.805 573.368 329.332 664.76C327.13 701.229 312.156 737.131 284.41 765.096C222.438 827.515 120.704 826.318 60.2422 761.254C5.56865 702.3 5.19116 609.774 59.4872 550.442C88.3025 519.012 126.681 502.195 165.688 500.053C256.413 495.14 342.041 456.971 406.151 392.474L424.397 374.082C488.382 309.585 526.068 223.61 530.472 132.722C532.36 93.6707 548.907 55.1236 580.176 26.1503C610.375 -1.8783 649.446 -15.6091 688.264 -14.9793C728.53 -15.4202 768.859 -0.366639 799.625 30.2443C827.622 58.0839 842.785 93.8597 845.176 130.391C851.153 221.72 887.958 308.325 952.761 372.823L971.132 391.088C1035.94 455.648 1122.63 491.928 1213.92 497.408C1250.35 499.612 1286.21 514.603 1314.15 542.38C1376.5 604.42 1375.3 706.268 1310.31 766.797C1251.42 821.531 1159 821.909 1099.73 767.553C1068.34 738.705 1051.54 700.284 1049.4 661.233C1044.49 570.408 1006.36 484.685 941.939 420.503L923.568 402.237C923.568 402.237 814.536 296.358 687.572 296.358L687.384 296.232Z" fill="#B74411"/>
<path d="M694 811C777.947 811 846 742.723 846 658.5C846 574.277 777.947 506 694 506C610.053 506 542 574.277 542 658.5C542 742.723 610.053 811 694 811Z" fill="#B74411"/>
<path d="M171 290C254.947 290 323 221.723 323 137.5C323 53.2766 254.947 -15 171 -15C87.0527 -15 19 53.2766 19 137.5C19 221.723 87.0527 290 171 290Z" fill="#B74411"/>
</g>
<defs>
<clipPath id="clip0_92_13">
<rect width="1051" height="779" fill="white"/>
</clipPath>
</defs>
</svg>
