<svg width="68" height="42" viewBox="0 0 68 42" fill="none" xmlns="http://www.w3.org/2000/svg">
<path d="M33.7072 15.6829C28.323 15.6829 25.0741 17.9102 21.9268 21.0766L21.0067 22.003C17.7546 25.2709 15.9271 29.643 15.6511 34.2466C15.5401 36.0836 14.785 37.8921 13.3858 39.3008C10.2606 42.445 5.13031 42.3847 2.08131 39.1072C-0.675798 36.1376 -0.694835 31.4768 2.04324 28.4881C3.49635 26.9049 5.43172 26.0578 7.39882 25.9499C11.9739 25.7024 16.292 23.7797 19.525 20.5309L20.4451 19.6044C23.6718 16.3555 25.5723 12.0247 25.7944 7.44649C25.8895 5.47939 26.724 3.53767 28.3008 2.07821C29.8237 0.666344 31.794 -0.0253126 33.7516 0.00641479C35.7821 -0.0157944 37.8159 0.74249 39.3673 2.28444C40.7792 3.68679 41.5438 5.48891 41.6644 7.32909C41.9658 11.9296 43.8219 16.2921 47.0898 19.541L48.0162 20.4611C51.2841 23.7131 55.6562 25.5406 60.2598 25.8166C62.0968 25.9277 63.9053 26.6828 65.314 28.082C68.4582 31.2071 68.3979 36.3374 65.1204 39.3864C62.1508 42.1435 57.49 42.1626 54.5013 39.4245C52.9181 37.9714 52.071 36.036 51.9631 34.0689C51.7156 29.4938 49.7929 25.1757 46.5441 21.9427L45.6176 21.0226C45.6176 21.0226 40.1193 15.6893 33.7167 15.6893L33.7072 15.6829Z" fill="white"/>
<path d="M34.0658 41.6105C38.301 41.6105 41.7343 38.1771 41.7343 33.9419C41.7343 29.7067 38.301 26.2734 34.0658 26.2734C29.8306 26.2734 26.3973 29.7067 26.3973 33.9419C26.3973 38.1771 29.8306 41.6105 34.0658 41.6105Z" fill="white"/>
<path d="M7.66851 15.337C11.9037 15.337 15.337 11.9037 15.337 7.66851C15.337 3.43331 11.9037 0 7.66851 0C3.43331 0 0 3.43331 0 7.66851C0 11.9037 3.43331 15.337 7.66851 15.337Z" fill="white"/>
</svg>
