<svg width="905" height="780" viewBox="0 0 905 780" fill="none" xmlns="http://www.w3.org/2000/svg">
<g clip-path="url(#clip0_94_36)">
<g clip-path="url(#clip1_94_36)">
<path d="M224.384 296.232C117.616 296.232 53.1906 340.448 -9.22156 403.307L-27.4671 421.699C-91.9554 486.574 -128.195 573.368 -133.668 664.76C-135.87 701.229 -150.844 737.131 -178.59 765.096C-240.562 827.515 -342.296 826.318 -402.758 761.254C-457.431 702.3 -457.809 609.774 -403.513 550.442C-374.698 519.012 -336.319 502.195 -297.312 500.053C-206.587 495.14 -120.959 456.971 -56.8486 392.474L-38.6031 374.082C25.382 309.585 63.0683 223.61 67.4724 132.722C69.3599 93.6707 85.9066 55.1236 117.176 26.1503C147.375 -1.8783 186.446 -15.6091 225.264 -14.9793C265.53 -15.4202 305.859 -0.366639 336.625 30.2443C364.622 58.0839 379.785 93.8597 382.176 130.391C388.153 221.72 424.958 308.325 489.761 372.823L508.132 391.088C572.935 455.648 659.633 491.928 750.923 497.408C787.351 499.612 823.213 514.603 851.147 542.38C913.497 604.42 912.301 706.268 847.31 766.797C788.421 821.531 695.998 821.909 636.731 767.553C605.337 738.705 588.538 700.284 586.399 661.233C581.492 570.408 543.365 484.685 478.939 420.503L460.568 402.237C460.568 402.237 351.536 296.358 224.572 296.358L224.384 296.232Z" fill="#E4E4E4"/>
<path d="M231 811C314.947 811 383 742.723 383 658.5C383 574.277 314.947 506 231 506C147.053 506 79 574.277 79 658.5C79 742.723 147.053 811 231 811Z" fill="#E4E4E4"/>
</g>
</g>
<defs>
<clipPath id="clip0_94_36">
<rect width="905" height="780" fill="white"/>
</clipPath>
<clipPath id="clip1_94_36">
<rect width="1442" height="779" fill="white" transform="translate(-537)"/>
</clipPath>
</defs>
</svg>
